<!DOCTYPE svg PUBLIC "-//W3C//DTD SVG 1.1//EN" "http://www.w3.org/Graphics/SVG/1.1/DTD/svg11.dtd">
<!-- Uploaded to: SVG Repo, www.svgrepo.com, Transformed by: SVG Repo Mixer Tools -->
<svg fill="#deddda" height="800px" width="800px" version="1.1" id="Layer_1" xmlns="http://www.w3.org/2000/svg" xmlns:xlink="http://www.w3.org/1999/xlink" viewBox="0 0 492.31 492.31" xml:space="preserve" stroke="#deddda" stroke-width="0.0049231299999999995">
<g id="SVGRepo_bgCarrier" stroke-width="0"/>
<g id="SVGRepo_tracerCarrier" stroke-linecap="round" stroke-linejoin="round"/>
<g id="SVGRepo_iconCarrier"> <g> <g> <path d="M83.106,46.401v108.139H0v291.37h409.207v-67.13h83.106V46.401H83.106z M389.514,426.219H33.615l78.899-78.899 l35.433,35.438l120.779-120.774l120.789,120.784V426.219z M389.514,354.921L268.726,234.137L147.947,354.911l-35.433-35.438 l-92.822,92.822V174.233h369.822V354.921z M472.62,359.089h-63.414V154.541H102.798V66.094H472.62V359.089z"/> </g> </g> <g> <g> <path d="M92.952,194.776c-21.13,0-38.317,17.188-38.317,38.317s17.188,38.317,38.317,38.317c21.13,0,38.317-17.187,38.317-38.317 S114.082,194.776,92.952,194.776z M92.952,251.719c-10.269,0-18.625-8.356-18.625-18.625s8.356-18.625,18.625-18.625 s18.625,8.356,18.625,18.625S103.221,251.719,92.952,251.719z"/> </g> </g> </g>
</svg>